<svg width="16" height="14" viewBox="0 0 16 14" fill="none" xmlns="http://www.w3.org/2000/svg">
<path d="M4.68434 10.6983C4.52868 10.5972 4.36134 10.4378 4.18232 10.22L3.91379 9.905C3.89823 9.87389 3.89434 9.86611 3.90212 9.88166C3.7698 9.71833 3.65694 9.59389 3.56354 9.50833C3.47014 9.42277 3.38064 9.36444 3.29502 9.33333C3.13935 9.27889 3.02649 9.17777 2.95644 9.03C2.88639 8.88222 2.87861 8.7325 2.93309 8.58083C2.98758 8.42916 3.08876 8.32027 3.23664 8.25416C3.38453 8.18805 3.53241 8.18222 3.68029 8.23666C3.89823 8.30666 4.09281 8.41555 4.26404 8.56333C4.42749 8.70333 4.61429 8.90166 4.82444 9.15833C4.80888 9.14277 4.80888 9.14666 4.82444 9.17L5.06962 9.47333C5.17859 9.59777 5.2642 9.68333 5.32647 9.73C5.45879 9.81555 5.6845 9.84277 6.00362 9.81166C6.01919 9.59389 6.0581 9.38 6.12037 9.17C5.22529 8.95222 4.55592 8.55166 4.11227 7.96833C3.64527 7.35389 3.41177 6.51 3.41177 5.43666C3.41177 4.72111 3.61414 4.08333 4.01887 3.52333C3.87877 2.93222 3.94104 2.31 4.20567 1.65666C4.26794 1.48555 4.38858 1.37277 4.56759 1.31833C4.60651 1.31055 4.64543 1.30277 4.68434 1.295C4.93341 1.25611 5.2175 1.28333 5.53662 1.37666C5.88687 1.48555 6.26825 1.67222 6.68077 1.93666C7.19447 1.81222 7.71984 1.75 8.25689 1.75C8.79394 1.75 9.31543 1.81222 9.82134 1.93666C10.2339 1.67222 10.6152 1.48555 10.9655 1.37666C11.2846 1.28333 11.5687 1.25611 11.8178 1.295C11.8645 1.30277 11.9073 1.31055 11.9462 1.31833C12.1174 1.38055 12.2381 1.49333 12.3081 1.65666C12.565 2.31 12.6233 2.93222 12.4832 3.52333C12.8958 4.07555 13.102 4.71333 13.102 5.43666C13.102 6.51 12.8646 7.35389 12.3898 7.96833C11.9462 8.55166 11.2768 8.95222 10.3817 9.17C10.4596 9.41889 10.4985 9.68722 10.4985 9.975L10.4868 11.5617C10.6036 11.585 10.7028 11.6375 10.7845 11.7192C10.8663 11.8008 10.9188 11.9 10.9421 12.0167C10.9733 12.1722 10.9441 12.3181 10.8546 12.4542C10.7651 12.5903 10.6386 12.6739 10.4751 12.705C10.265 12.7439 10.0704 12.7283 9.89139 12.6583C9.71238 12.5883 9.57228 12.4775 9.47109 12.3258C9.36991 12.1742 9.31932 12.0011 9.31932 11.8067L9.33099 9.975C9.33099 9.78055 9.30764 9.61527 9.26094 9.47916C9.21424 9.34305 9.15587 9.24389 9.08582 9.18166C8.96129 9.07277 8.89318 8.94055 8.88151 8.785C8.86983 8.62944 8.91264 8.49139 9.00993 8.37083C9.10722 8.25027 9.23759 8.17833 9.40104 8.155C9.99258 8.09277 10.4674 7.96833 10.8254 7.78166C11.199 7.57944 11.4772 7.29166 11.6602 6.91833C11.8431 6.545 11.9345 6.05111 11.9345 5.43666C11.9345 4.89222 11.7555 4.42555 11.3975 4.03666C11.3196 3.95889 11.271 3.86361 11.2515 3.75083C11.2321 3.63805 11.2418 3.53111 11.2807 3.43C11.3975 3.15 11.4169 2.835 11.3391 2.485C11.0278 2.57833 10.6658 2.765 10.2533 3.045C10.1054 3.14611 9.94199 3.17333 9.76297 3.12666C9.2804 2.98666 8.77643 2.91666 8.25106 2.91666C7.72568 2.91666 7.22171 2.98666 6.73914 3.12666C6.56791 3.17333 6.40446 3.14611 6.24879 3.045C5.83628 2.765 5.47435 2.58222 5.16302 2.49666C5.08519 2.83889 5.10464 3.15 5.22139 3.43C5.26031 3.53111 5.27004 3.63805 5.25058 3.75083C5.23112 3.86361 5.18248 3.95889 5.10464 4.03666C4.75439 4.42555 4.57927 4.89222 4.57927 5.43666C4.57927 6.05111 4.66878 6.545 4.84779 6.91833C5.02681 7.29166 5.30312 7.57944 5.67672 7.78166C6.02697 7.96833 6.50175 8.09277 7.10107 8.155C7.26452 8.17833 7.39294 8.25027 7.48634 8.37083C7.57974 8.49139 7.62255 8.62944 7.61477 8.785C7.60699 8.94055 7.54083 9.07277 7.41629 9.18166C7.35403 9.23611 7.29954 9.33333 7.25284 9.47333C7.19058 9.63666 7.15944 9.80389 7.15944 9.975V11.8067C7.15944 12.0011 7.1108 12.1742 7.01351 12.3258C6.91621 12.4775 6.78001 12.5883 6.60488 12.6583C6.42976 12.7283 6.23323 12.7439 6.01529 12.705C5.85963 12.6739 5.73509 12.5922 5.64169 12.46C5.54829 12.3278 5.51716 12.1839 5.54829 12.0283C5.56386 11.9117 5.61445 11.8106 5.70007 11.725C5.78569 11.6394 5.88298 11.585 5.99194 11.5617V10.9783C5.45489 11.0172 5.01903 10.9239 4.68434 10.6983Z" fill="white"/>
</svg>
